# xmcd
# 
# Track frame offsets:
#     150
#     14471
#     31093
#     46912
#     63331
#     79121
#     96098
#     109943
#     131384
#     149771
#     163951
#     180274
# 
# Disc length: 2555
# 
# Revision: 3
# Processed by: cddbd v1.5.2PL0 Copyright (c) Steve Scherf et al.
# Submitted via: fre:ac v1.0.31
# 
DISCID=9b09f90c
DTITLE=Beth Ditto - Fake Sugar
DYEAR=2017
DGENRE=Rock/Pop
TTITLE0=Fire
TTITLE1=In And Out
TTITLE2=Fake Sugar
TTITLE3=Savoir Faire
TTITLE4=We Could Run
TTITLE5=Oh La La
TTITLE6=Go Baby Go
TTITLE7=Oh My God
TTITLE8=Love In Real Life
TTITLE9=Do You Want Me To
TTITLE10=Lover
TTITLE11=Clouds (Song For John)
EXTD=YEAR: 2017
EXTT0=
EXTT1=
EXTT2=
EXTT3=
EXTT4=
EXTT5=
EXTT6=
EXTT7=
EXTT8=
EXTT9=
EXTT10=
EXTT11=
PLAYORDER=
